<mxfile host="app.diagrams.net" modified="2022-02-04T23:10:08.929Z" agent="5.0 (Windows NT 10.0; Win64; x64) AppleWebKit/537.36 (KHTML, like Gecko) Chrome/97.0.4692.99 Safari/537.36" etag="FsEXMCiI34HpkelNg-Oi" version="16.5.3" type="github">
  <diagram name="Page-1" id="efa7a0a1-bf9b-a30e-e6df-94a7791c09e9">
    <mxGraphModel dx="1694" dy="488" grid="1" gridSize="10" guides="1" tooltips="1" connect="1" arrows="1" fold="1" page="1" pageScale="1" pageWidth="826" pageHeight="1169" background="none" math="0" shadow="0">
      <root>
        <mxCell id="0" />
        <mxCell id="1" parent="0" />
        <mxCell id="kLUOnCQ621r99mIOBmP9-114" value="Producto" style="rounded=1;whiteSpace=wrap;html=1;" parent="1" vertex="1">
          <mxGeometry x="120" y="250" width="120" height="60" as="geometry" />
        </mxCell>
        <mxCell id="kLUOnCQ621r99mIOBmP9-115" value="Precio" style="ellipse;whiteSpace=wrap;html=1;" parent="1" vertex="1">
          <mxGeometry x="-30" y="240" width="80" height="50" as="geometry" />
        </mxCell>
        <mxCell id="kLUOnCQ621r99mIOBmP9-116" value="Nombre" style="ellipse;whiteSpace=wrap;html=1;" parent="1" vertex="1">
          <mxGeometry x="10" y="170" width="70" height="40" as="geometry" />
        </mxCell>
        <mxCell id="kLUOnCQ621r99mIOBmP9-117" value="descripcion_cat" style="ellipse;whiteSpace=wrap;html=1;" parent="1" vertex="1">
          <mxGeometry x="-130" y="540" width="100" height="70" as="geometry" />
        </mxCell>
        <mxCell id="kLUOnCQ621r99mIOBmP9-118" value="codigo_marca" style="ellipse;whiteSpace=wrap;html=1;" parent="1" vertex="1">
          <mxGeometry x="260" y="35" width="80" height="50" as="geometry" />
        </mxCell>
        <mxCell id="kLUOnCQ621r99mIOBmP9-119" value="&lt;u&gt;&lt;b&gt;codigo&lt;/b&gt;&lt;/u&gt;" style="ellipse;whiteSpace=wrap;html=1;" parent="1" vertex="1">
          <mxGeometry x="110" y="160" width="80" height="50" as="geometry" />
        </mxCell>
        <mxCell id="kLUOnCQ621r99mIOBmP9-122" value="descripcion" style="ellipse;whiteSpace=wrap;html=1;" parent="1" vertex="1">
          <mxGeometry x="300" y="230" width="80" height="50" as="geometry" />
        </mxCell>
        <mxCell id="kLUOnCQ621r99mIOBmP9-133" value="Cliente" style="rounded=1;whiteSpace=wrap;html=1;" parent="1" vertex="1">
          <mxGeometry x="630" y="740" width="120" height="60" as="geometry" />
        </mxCell>
        <mxCell id="kLUOnCQ621r99mIOBmP9-134" value="&lt;u&gt;&lt;b&gt;rut&lt;/b&gt;&lt;/u&gt;" style="ellipse;whiteSpace=wrap;html=1;" parent="1" vertex="1">
          <mxGeometry x="510" y="750" width="80" height="50" as="geometry" />
        </mxCell>
        <mxCell id="kLUOnCQ621r99mIOBmP9-135" value="nombre" style="ellipse;whiteSpace=wrap;html=1;" parent="1" vertex="1">
          <mxGeometry x="510" y="670" width="80" height="50" as="geometry" />
        </mxCell>
        <mxCell id="kLUOnCQ621r99mIOBmP9-136" value="calle" style="ellipse;whiteSpace=wrap;html=1;" parent="1" vertex="1">
          <mxGeometry x="600" y="1050" width="80" height="50" as="geometry" />
        </mxCell>
        <mxCell id="kLUOnCQ621r99mIOBmP9-137" value="email" style="ellipse;whiteSpace=wrap;html=1;" parent="1" vertex="1">
          <mxGeometry x="770" y="660" width="80" height="50" as="geometry" />
        </mxCell>
        <mxCell id="kLUOnCQ621r99mIOBmP9-138" value="" style="endArrow=none;html=1;rounded=0;entryX=0;entryY=0.75;entryDx=0;entryDy=0;" parent="1" source="kLUOnCQ621r99mIOBmP9-134" target="kLUOnCQ621r99mIOBmP9-133" edge="1">
          <mxGeometry width="50" height="50" relative="1" as="geometry">
            <mxPoint x="410" y="610" as="sourcePoint" />
            <mxPoint x="410" y="630.7106781186548" as="targetPoint" />
          </mxGeometry>
        </mxCell>
        <mxCell id="kLUOnCQ621r99mIOBmP9-139" value="" style="endArrow=none;html=1;rounded=0;entryX=0;entryY=0;entryDx=0;entryDy=0;exitX=1;exitY=1;exitDx=0;exitDy=0;" parent="1" source="kLUOnCQ621r99mIOBmP9-135" target="kLUOnCQ621r99mIOBmP9-133" edge="1">
          <mxGeometry width="50" height="50" relative="1" as="geometry">
            <mxPoint x="570" y="710" as="sourcePoint" />
            <mxPoint x="628.8" y="678.8" as="targetPoint" />
            <Array as="points" />
          </mxGeometry>
        </mxCell>
        <mxCell id="kLUOnCQ621r99mIOBmP9-140" value="apellido2" style="ellipse;whiteSpace=wrap;html=1;" parent="1" vertex="1">
          <mxGeometry x="800" y="745" width="80" height="50" as="geometry" />
        </mxCell>
        <mxCell id="kLUOnCQ621r99mIOBmP9-141" value="" style="endArrow=none;html=1;rounded=0;entryX=1;entryY=0;entryDx=0;entryDy=0;exitX=0;exitY=1;exitDx=0;exitDy=0;" parent="1" source="FFVmfVcRInCIORBbtV2s-22" target="kLUOnCQ621r99mIOBmP9-136" edge="1">
          <mxGeometry width="50" height="50" relative="1" as="geometry">
            <mxPoint x="820" y="930" as="sourcePoint" />
            <mxPoint x="600" y="560" as="targetPoint" />
            <Array as="points" />
          </mxGeometry>
        </mxCell>
        <mxCell id="kLUOnCQ621r99mIOBmP9-142" value="" style="endArrow=none;html=1;rounded=0;exitX=0.75;exitY=0;exitDx=0;exitDy=0;entryX=0;entryY=1;entryDx=0;entryDy=0;" parent="1" source="kLUOnCQ621r99mIOBmP9-133" target="kLUOnCQ621r99mIOBmP9-137" edge="1">
          <mxGeometry width="50" height="50" relative="1" as="geometry">
            <mxPoint x="620" y="610" as="sourcePoint" />
            <mxPoint x="780" y="560" as="targetPoint" />
            <Array as="points" />
          </mxGeometry>
        </mxCell>
        <mxCell id="kLUOnCQ621r99mIOBmP9-143" value="" style="endArrow=none;html=1;rounded=0;exitX=1;exitY=0.5;exitDx=0;exitDy=0;entryX=0;entryY=0.5;entryDx=0;entryDy=0;" parent="1" source="kLUOnCQ621r99mIOBmP9-133" target="kLUOnCQ621r99mIOBmP9-140" edge="1">
          <mxGeometry width="50" height="50" relative="1" as="geometry">
            <mxPoint x="670" y="670" as="sourcePoint" />
            <mxPoint x="830" y="755" as="targetPoint" />
          </mxGeometry>
        </mxCell>
        <mxCell id="kLUOnCQ621r99mIOBmP9-144" value="Vendedor" style="rounded=1;whiteSpace=wrap;html=1;" parent="1" vertex="1">
          <mxGeometry x="220" y="585" width="120" height="60" as="geometry" />
        </mxCell>
        <mxCell id="kLUOnCQ621r99mIOBmP9-145" value="nombre" style="ellipse;whiteSpace=wrap;html=1;" parent="1" vertex="1">
          <mxGeometry x="180" y="730" width="80" height="50" as="geometry" />
        </mxCell>
        <mxCell id="kLUOnCQ621r99mIOBmP9-146" value="&lt;u&gt;&lt;b&gt;rut&lt;/b&gt;&lt;/u&gt;" style="ellipse;whiteSpace=wrap;html=1;" parent="1" vertex="1">
          <mxGeometry x="80" y="690" width="80" height="50" as="geometry" />
        </mxCell>
        <mxCell id="kLUOnCQ621r99mIOBmP9-147" value="email" style="ellipse;whiteSpace=wrap;html=1;" parent="1" vertex="1">
          <mxGeometry x="330" y="740" width="80" height="50" as="geometry" />
        </mxCell>
        <mxCell id="kLUOnCQ621r99mIOBmP9-148" value="" style="endArrow=none;html=1;rounded=0;entryX=1;entryY=0;entryDx=0;entryDy=0;exitX=0.5;exitY=1;exitDx=0;exitDy=0;" parent="1" source="kLUOnCQ621r99mIOBmP9-144" target="kLUOnCQ621r99mIOBmP9-145" edge="1">
          <mxGeometry width="50" height="50" relative="1" as="geometry">
            <mxPoint x="-70" y="710" as="sourcePoint" />
            <mxPoint x="-20" y="660" as="targetPoint" />
          </mxGeometry>
        </mxCell>
        <mxCell id="kLUOnCQ621r99mIOBmP9-149" value="" style="endArrow=none;html=1;rounded=0;entryX=0.5;entryY=0;entryDx=0;entryDy=0;exitX=0;exitY=1;exitDx=0;exitDy=0;" parent="1" source="kLUOnCQ621r99mIOBmP9-144" target="kLUOnCQ621r99mIOBmP9-146" edge="1">
          <mxGeometry width="50" height="50" relative="1" as="geometry">
            <mxPoint x="80" y="690" as="sourcePoint" />
            <mxPoint x="130" y="640" as="targetPoint" />
          </mxGeometry>
        </mxCell>
        <mxCell id="kLUOnCQ621r99mIOBmP9-150" value="" style="endArrow=none;html=1;rounded=0;exitX=0.75;exitY=1;exitDx=0;exitDy=0;entryX=0.5;entryY=0;entryDx=0;entryDy=0;" parent="1" source="kLUOnCQ621r99mIOBmP9-144" target="kLUOnCQ621r99mIOBmP9-147" edge="1">
          <mxGeometry width="50" height="50" relative="1" as="geometry">
            <mxPoint x="180" y="680" as="sourcePoint" />
            <mxPoint x="230" y="630" as="targetPoint" />
          </mxGeometry>
        </mxCell>
        <mxCell id="kLUOnCQ621r99mIOBmP9-151" value="Pide&lt;br&gt;1 a n" style="rhombus;whiteSpace=wrap;html=1;" parent="1" vertex="1">
          <mxGeometry x="690" y="490" width="80" height="80" as="geometry" />
        </mxCell>
        <mxCell id="kLUOnCQ621r99mIOBmP9-152" value="" style="endArrow=none;html=1;rounded=0;exitX=0.5;exitY=1;exitDx=0;exitDy=0;entryX=0.5;entryY=0;entryDx=0;entryDy=0;" parent="1" source="kLUOnCQ621r99mIOBmP9-157" target="kLUOnCQ621r99mIOBmP9-151" edge="1">
          <mxGeometry width="50" height="50" relative="1" as="geometry">
            <mxPoint x="600" y="340" as="sourcePoint" />
            <mxPoint x="270" y="720" as="targetPoint" />
            <Array as="points" />
          </mxGeometry>
        </mxCell>
        <mxCell id="kLUOnCQ621r99mIOBmP9-172" value="0 a n" style="edgeLabel;html=1;align=center;verticalAlign=middle;resizable=0;points=[];" parent="kLUOnCQ621r99mIOBmP9-152" vertex="1" connectable="0">
          <mxGeometry x="-0.0704" y="5" relative="1" as="geometry">
            <mxPoint as="offset" />
          </mxGeometry>
        </mxCell>
        <mxCell id="kLUOnCQ621r99mIOBmP9-153" value="" style="endArrow=none;html=1;rounded=0;exitX=0.5;exitY=1;exitDx=0;exitDy=0;entryX=0.5;entryY=0;entryDx=0;entryDy=0;" parent="1" source="kLUOnCQ621r99mIOBmP9-151" target="kLUOnCQ621r99mIOBmP9-133" edge="1">
          <mxGeometry width="50" height="50" relative="1" as="geometry">
            <mxPoint x="480" y="760" as="sourcePoint" />
            <mxPoint x="530" y="710" as="targetPoint" />
          </mxGeometry>
        </mxCell>
        <mxCell id="kLUOnCQ621r99mIOBmP9-173" value="1 a 1" style="edgeLabel;html=1;align=center;verticalAlign=middle;resizable=0;points=[];" parent="kLUOnCQ621r99mIOBmP9-153" vertex="1" connectable="0">
          <mxGeometry x="-0.3132" y="1" relative="1" as="geometry">
            <mxPoint as="offset" />
          </mxGeometry>
        </mxCell>
        <mxCell id="kLUOnCQ621r99mIOBmP9-154" value="realiza&lt;br&gt;1 a n" style="rhombus;whiteSpace=wrap;html=1;" parent="1" vertex="1">
          <mxGeometry x="430" y="470" width="80" height="80" as="geometry" />
        </mxCell>
        <mxCell id="kLUOnCQ621r99mIOBmP9-155" value="" style="endArrow=none;html=1;rounded=0;entryX=0;entryY=0.5;entryDx=0;entryDy=0;exitX=1;exitY=0.5;exitDx=0;exitDy=0;" parent="1" source="kLUOnCQ621r99mIOBmP9-154" target="kLUOnCQ621r99mIOBmP9-157" edge="1">
          <mxGeometry width="50" height="50" relative="1" as="geometry">
            <mxPoint x="200" y="490" as="sourcePoint" />
            <mxPoint x="250" y="440" as="targetPoint" />
            <Array as="points" />
          </mxGeometry>
        </mxCell>
        <mxCell id="kLUOnCQ621r99mIOBmP9-175" value="0 a n" style="edgeLabel;html=1;align=center;verticalAlign=middle;resizable=0;points=[];" parent="kLUOnCQ621r99mIOBmP9-155" vertex="1" connectable="0">
          <mxGeometry x="-0.6844" y="-2" relative="1" as="geometry">
            <mxPoint x="-1" as="offset" />
          </mxGeometry>
        </mxCell>
        <mxCell id="kLUOnCQ621r99mIOBmP9-156" value="" style="endArrow=none;html=1;rounded=0;entryX=0;entryY=0.5;entryDx=0;entryDy=0;exitX=0.583;exitY=-0.017;exitDx=0;exitDy=0;exitPerimeter=0;" parent="1" source="kLUOnCQ621r99mIOBmP9-144" target="kLUOnCQ621r99mIOBmP9-154" edge="1">
          <mxGeometry width="50" height="50" relative="1" as="geometry">
            <mxPoint x="50" y="580" as="sourcePoint" />
            <mxPoint x="100" y="530" as="targetPoint" />
          </mxGeometry>
        </mxCell>
        <mxCell id="kLUOnCQ621r99mIOBmP9-174" value="1 a 1" style="edgeLabel;html=1;align=center;verticalAlign=middle;resizable=0;points=[];" parent="kLUOnCQ621r99mIOBmP9-156" vertex="1" connectable="0">
          <mxGeometry x="0.4283" y="3" relative="1" as="geometry">
            <mxPoint as="offset" />
          </mxGeometry>
        </mxCell>
        <mxCell id="kLUOnCQ621r99mIOBmP9-157" value="Venta" style="rounded=1;whiteSpace=wrap;html=1;" parent="1" vertex="1">
          <mxGeometry x="730" y="300" width="120" height="60" as="geometry" />
        </mxCell>
        <mxCell id="kLUOnCQ621r99mIOBmP9-158" value="&lt;b&gt;&lt;u&gt;nro venta&lt;/u&gt;&lt;/b&gt;" style="ellipse;whiteSpace=wrap;html=1;" parent="1" vertex="1">
          <mxGeometry x="610" y="240" width="80" height="50" as="geometry" />
        </mxCell>
        <mxCell id="kLUOnCQ621r99mIOBmP9-159" value="fecha&amp;nbsp;" style="ellipse;whiteSpace=wrap;html=1;" parent="1" vertex="1">
          <mxGeometry x="710" y="220" width="80" height="50" as="geometry" />
        </mxCell>
        <mxCell id="kLUOnCQ621r99mIOBmP9-160" value="medio de pago" style="ellipse;whiteSpace=wrap;html=1;" parent="1" vertex="1">
          <mxGeometry x="810" y="220" width="80" height="50" as="geometry" />
        </mxCell>
        <mxCell id="kLUOnCQ621r99mIOBmP9-161" value="ubicacion" style="ellipse;whiteSpace=wrap;html=1;" parent="1" vertex="1">
          <mxGeometry x="900" y="255" width="80" height="50" as="geometry" />
        </mxCell>
        <mxCell id="kLUOnCQ621r99mIOBmP9-162" value="" style="endArrow=none;html=1;rounded=0;entryX=0.5;entryY=1;entryDx=0;entryDy=0;exitX=0;exitY=0.25;exitDx=0;exitDy=0;" parent="1" source="kLUOnCQ621r99mIOBmP9-157" target="kLUOnCQ621r99mIOBmP9-158" edge="1">
          <mxGeometry width="50" height="50" relative="1" as="geometry">
            <mxPoint x="610" y="320" as="sourcePoint" />
            <mxPoint x="660" y="270" as="targetPoint" />
          </mxGeometry>
        </mxCell>
        <mxCell id="kLUOnCQ621r99mIOBmP9-163" value="" style="endArrow=none;html=1;rounded=0;entryX=0.5;entryY=1;entryDx=0;entryDy=0;exitX=0.175;exitY=-0.033;exitDx=0;exitDy=0;exitPerimeter=0;" parent="1" source="kLUOnCQ621r99mIOBmP9-157" target="kLUOnCQ621r99mIOBmP9-159" edge="1">
          <mxGeometry width="50" height="50" relative="1" as="geometry">
            <mxPoint x="740" y="290" as="sourcePoint" />
            <mxPoint x="790" y="240" as="targetPoint" />
          </mxGeometry>
        </mxCell>
        <mxCell id="kLUOnCQ621r99mIOBmP9-164" value="" style="endArrow=none;html=1;rounded=0;entryX=0;entryY=1;entryDx=0;entryDy=0;exitX=0.583;exitY=-0.033;exitDx=0;exitDy=0;exitPerimeter=0;" parent="1" source="kLUOnCQ621r99mIOBmP9-157" target="kLUOnCQ621r99mIOBmP9-160" edge="1">
          <mxGeometry width="50" height="50" relative="1" as="geometry">
            <mxPoint x="820" y="290" as="sourcePoint" />
            <mxPoint x="870" y="240" as="targetPoint" />
          </mxGeometry>
        </mxCell>
        <mxCell id="kLUOnCQ621r99mIOBmP9-165" value="" style="endArrow=none;html=1;rounded=0;entryX=0.5;entryY=1;entryDx=0;entryDy=0;exitX=1;exitY=0.25;exitDx=0;exitDy=0;" parent="1" source="kLUOnCQ621r99mIOBmP9-157" target="kLUOnCQ621r99mIOBmP9-161" edge="1">
          <mxGeometry width="50" height="50" relative="1" as="geometry">
            <mxPoint x="910" y="320" as="sourcePoint" />
            <mxPoint x="960" y="270" as="targetPoint" />
          </mxGeometry>
        </mxCell>
        <mxCell id="kLUOnCQ621r99mIOBmP9-166" value="incluye&lt;br&gt;n a n" style="rhombus;whiteSpace=wrap;html=1;" parent="1" vertex="1">
          <mxGeometry x="413" y="300" width="80" height="80" as="geometry" />
        </mxCell>
        <mxCell id="kLUOnCQ621r99mIOBmP9-167" value="" style="endArrow=none;html=1;rounded=0;entryX=1;entryY=1;entryDx=0;entryDy=0;exitX=0;exitY=0.5;exitDx=0;exitDy=0;" parent="1" source="kLUOnCQ621r99mIOBmP9-166" target="kLUOnCQ621r99mIOBmP9-114" edge="1">
          <mxGeometry width="50" height="50" relative="1" as="geometry">
            <mxPoint x="270" y="470" as="sourcePoint" />
            <mxPoint x="320" y="420" as="targetPoint" />
          </mxGeometry>
        </mxCell>
        <mxCell id="kLUOnCQ621r99mIOBmP9-176" value="1an" style="edgeLabel;html=1;align=center;verticalAlign=middle;resizable=0;points=[];" parent="kLUOnCQ621r99mIOBmP9-167" vertex="1" connectable="0">
          <mxGeometry x="-0.3115" relative="1" as="geometry">
            <mxPoint y="-1" as="offset" />
          </mxGeometry>
        </mxCell>
        <mxCell id="kLUOnCQ621r99mIOBmP9-168" value="" style="endArrow=none;html=1;rounded=0;exitX=1;exitY=0.5;exitDx=0;exitDy=0;entryX=-0.017;entryY=0.4;entryDx=0;entryDy=0;entryPerimeter=0;" parent="1" source="kLUOnCQ621r99mIOBmP9-166" target="kLUOnCQ621r99mIOBmP9-157" edge="1">
          <mxGeometry width="50" height="50" relative="1" as="geometry">
            <mxPoint x="570" y="360" as="sourcePoint" />
            <mxPoint x="620" y="310" as="targetPoint" />
          </mxGeometry>
        </mxCell>
        <mxCell id="kLUOnCQ621r99mIOBmP9-177" value="0 a n" style="edgeLabel;html=1;align=center;verticalAlign=middle;resizable=0;points=[];" parent="kLUOnCQ621r99mIOBmP9-168" vertex="1" connectable="0">
          <mxGeometry x="-0.1815" y="-1" relative="1" as="geometry">
            <mxPoint as="offset" />
          </mxGeometry>
        </mxCell>
        <mxCell id="HzZAERPHN2rdhntbZ7bH-2" value="cantidad" style="ellipse;whiteSpace=wrap;html=1;" parent="1" vertex="1">
          <mxGeometry x="330" y="410" width="60" height="30" as="geometry" />
        </mxCell>
        <mxCell id="HzZAERPHN2rdhntbZ7bH-4" value="precio" style="ellipse;whiteSpace=wrap;html=1;" parent="1" vertex="1">
          <mxGeometry x="400" y="410" width="70" height="30" as="geometry" />
        </mxCell>
        <mxCell id="HzZAERPHN2rdhntbZ7bH-5" value="" style="endArrow=none;html=1;rounded=0;exitX=1;exitY=0;exitDx=0;exitDy=0;" parent="1" source="HzZAERPHN2rdhntbZ7bH-2" target="kLUOnCQ621r99mIOBmP9-166" edge="1">
          <mxGeometry width="50" height="50" relative="1" as="geometry">
            <mxPoint x="390" y="450" as="sourcePoint" />
            <mxPoint x="440" y="400" as="targetPoint" />
          </mxGeometry>
        </mxCell>
        <mxCell id="HzZAERPHN2rdhntbZ7bH-6" value="" style="endArrow=none;html=1;rounded=0;" parent="1" source="HzZAERPHN2rdhntbZ7bH-4" target="kLUOnCQ621r99mIOBmP9-166" edge="1">
          <mxGeometry width="50" height="50" relative="1" as="geometry">
            <mxPoint x="370" y="470" as="sourcePoint" />
            <mxPoint x="420" y="420" as="targetPoint" />
          </mxGeometry>
        </mxCell>
        <mxCell id="HzZAERPHN2rdhntbZ7bH-7" value="" style="endArrow=none;html=1;rounded=0;entryX=1;entryY=1;entryDx=0;entryDy=0;exitX=0;exitY=0.5;exitDx=0;exitDy=0;" parent="1" source="kLUOnCQ621r99mIOBmP9-114" target="kLUOnCQ621r99mIOBmP9-115" edge="1">
          <mxGeometry width="50" height="50" relative="1" as="geometry">
            <mxPoint x="40" y="400" as="sourcePoint" />
            <mxPoint x="90" y="350" as="targetPoint" />
          </mxGeometry>
        </mxCell>
        <mxCell id="HzZAERPHN2rdhntbZ7bH-8" value="" style="endArrow=none;html=1;rounded=0;entryX=0.5;entryY=1;entryDx=0;entryDy=0;exitX=0;exitY=0.133;exitDx=0;exitDy=0;exitPerimeter=0;" parent="1" source="kLUOnCQ621r99mIOBmP9-114" target="kLUOnCQ621r99mIOBmP9-116" edge="1">
          <mxGeometry width="50" height="50" relative="1" as="geometry">
            <mxPoint x="70" y="300" as="sourcePoint" />
            <mxPoint x="120" y="250" as="targetPoint" />
          </mxGeometry>
        </mxCell>
        <mxCell id="HzZAERPHN2rdhntbZ7bH-9" value="" style="endArrow=none;html=1;rounded=0;entryX=1;entryY=0;entryDx=0;entryDy=0;exitX=0.25;exitY=1;exitDx=0;exitDy=0;" parent="1" source="FFVmfVcRInCIORBbtV2s-4" target="kLUOnCQ621r99mIOBmP9-117" edge="1">
          <mxGeometry width="50" height="50" relative="1" as="geometry">
            <mxPoint x="130" y="290" as="sourcePoint" />
            <mxPoint x="180" y="240" as="targetPoint" />
            <Array as="points" />
          </mxGeometry>
        </mxCell>
        <mxCell id="HzZAERPHN2rdhntbZ7bH-10" value="" style="endArrow=none;html=1;rounded=0;exitX=0.017;exitY=0.133;exitDx=0;exitDy=0;exitPerimeter=0;entryX=1;entryY=0;entryDx=0;entryDy=0;" parent="1" source="FFVmfVcRInCIORBbtV2s-13" target="kLUOnCQ621r99mIOBmP9-118" edge="1">
          <mxGeometry width="50" height="50" relative="1" as="geometry">
            <mxPoint x="190" y="290" as="sourcePoint" />
            <mxPoint x="240" y="240" as="targetPoint" />
          </mxGeometry>
        </mxCell>
        <mxCell id="HzZAERPHN2rdhntbZ7bH-11" value="" style="endArrow=none;html=1;rounded=0;exitX=0.25;exitY=0;exitDx=0;exitDy=0;entryX=0.4;entryY=0.98;entryDx=0;entryDy=0;entryPerimeter=0;" parent="1" source="kLUOnCQ621r99mIOBmP9-114" target="kLUOnCQ621r99mIOBmP9-119" edge="1">
          <mxGeometry width="50" height="50" relative="1" as="geometry">
            <mxPoint x="250" y="310" as="sourcePoint" />
            <mxPoint x="300" y="260" as="targetPoint" />
          </mxGeometry>
        </mxCell>
        <mxCell id="HzZAERPHN2rdhntbZ7bH-12" value="" style="endArrow=none;html=1;rounded=0;exitX=1;exitY=0.5;exitDx=0;exitDy=0;entryX=0;entryY=0.5;entryDx=0;entryDy=0;" parent="1" source="kLUOnCQ621r99mIOBmP9-114" target="kLUOnCQ621r99mIOBmP9-122" edge="1">
          <mxGeometry width="50" height="50" relative="1" as="geometry">
            <mxPoint x="280" y="350" as="sourcePoint" />
            <mxPoint x="330" y="300" as="targetPoint" />
          </mxGeometry>
        </mxCell>
        <mxCell id="FFVmfVcRInCIORBbtV2s-4" value="categoria" style="rounded=1;whiteSpace=wrap;html=1;" vertex="1" parent="1">
          <mxGeometry x="-70" y="470" width="120" height="60" as="geometry" />
        </mxCell>
        <mxCell id="FFVmfVcRInCIORBbtV2s-5" value="codigo_cat" style="ellipse;whiteSpace=wrap;html=1;" vertex="1" parent="1">
          <mxGeometry x="-20" y="560" width="80" height="50" as="geometry" />
        </mxCell>
        <mxCell id="FFVmfVcRInCIORBbtV2s-6" value="" style="endArrow=none;html=1;rounded=0;exitX=0.583;exitY=1.033;exitDx=0;exitDy=0;exitPerimeter=0;" edge="1" parent="1" source="FFVmfVcRInCIORBbtV2s-4" target="FFVmfVcRInCIORBbtV2s-5">
          <mxGeometry width="50" height="50" relative="1" as="geometry">
            <mxPoint x="50" y="490" as="sourcePoint" />
            <mxPoint x="-51.7157287525381" y="557.3223304703363" as="targetPoint" />
            <Array as="points" />
          </mxGeometry>
        </mxCell>
        <mxCell id="FFVmfVcRInCIORBbtV2s-7" value="pertenece&lt;br&gt;n a n" style="rhombus;whiteSpace=wrap;html=1;" vertex="1" parent="1">
          <mxGeometry x="40" y="360" width="80" height="80" as="geometry" />
        </mxCell>
        <mxCell id="FFVmfVcRInCIORBbtV2s-8" value="" style="endArrow=none;html=1;rounded=0;exitX=0.5;exitY=1;exitDx=0;exitDy=0;entryX=1;entryY=0;entryDx=0;entryDy=0;" edge="1" parent="1" source="kLUOnCQ621r99mIOBmP9-114" target="FFVmfVcRInCIORBbtV2s-7">
          <mxGeometry width="50" height="50" relative="1" as="geometry">
            <mxPoint x="226.48000000000005" y="360" as="sourcePoint" />
            <mxPoint x="180.00240407397362" y="439.482921701368" as="targetPoint" />
            <Array as="points" />
          </mxGeometry>
        </mxCell>
        <mxCell id="FFVmfVcRInCIORBbtV2s-10" value="0..n" style="edgeLabel;html=1;align=center;verticalAlign=middle;resizable=0;points=[];" vertex="1" connectable="0" parent="FFVmfVcRInCIORBbtV2s-8">
          <mxGeometry x="0.3593" y="1" relative="1" as="geometry">
            <mxPoint as="offset" />
          </mxGeometry>
        </mxCell>
        <mxCell id="FFVmfVcRInCIORBbtV2s-9" value="1..n" style="endArrow=none;html=1;rounded=0;exitX=0;exitY=1;exitDx=0;exitDy=0;entryX=0.5;entryY=0;entryDx=0;entryDy=0;" edge="1" parent="1" source="FFVmfVcRInCIORBbtV2s-7" target="FFVmfVcRInCIORBbtV2s-4">
          <mxGeometry width="50" height="50" relative="1" as="geometry">
            <mxPoint x="99.96000000000004" y="501.98" as="sourcePoint" />
            <mxPoint x="53.48240407397361" y="581.462921701368" as="targetPoint" />
            <Array as="points" />
          </mxGeometry>
        </mxCell>
        <mxCell id="FFVmfVcRInCIORBbtV2s-11" value="ind_principal" style="ellipse;whiteSpace=wrap;html=1;" vertex="1" parent="1">
          <mxGeometry x="160" y="420" width="80" height="50" as="geometry" />
        </mxCell>
        <mxCell id="FFVmfVcRInCIORBbtV2s-12" value="" style="endArrow=none;html=1;rounded=0;exitX=0.9;exitY=0.6;exitDx=0;exitDy=0;exitPerimeter=0;entryX=0;entryY=0;entryDx=0;entryDy=0;" edge="1" parent="1" source="FFVmfVcRInCIORBbtV2s-7" target="FFVmfVcRInCIORBbtV2s-11">
          <mxGeometry width="50" height="50" relative="1" as="geometry">
            <mxPoint x="100.00000000000004" y="400" as="sourcePoint" />
            <mxPoint x="110.85795647592708" y="428.687584661207" as="targetPoint" />
            <Array as="points" />
          </mxGeometry>
        </mxCell>
        <mxCell id="FFVmfVcRInCIORBbtV2s-13" value="marca" style="rounded=1;whiteSpace=wrap;html=1;" vertex="1" parent="1">
          <mxGeometry x="413" y="30" width="120" height="60" as="geometry" />
        </mxCell>
        <mxCell id="FFVmfVcRInCIORBbtV2s-14" value="descripcion_marca" style="ellipse;whiteSpace=wrap;html=1;" vertex="1" parent="1">
          <mxGeometry x="560" y="10" width="120" height="55" as="geometry" />
        </mxCell>
        <mxCell id="FFVmfVcRInCIORBbtV2s-15" value="" style="endArrow=none;html=1;rounded=0;exitX=0;exitY=0.5;exitDx=0;exitDy=0;entryX=1;entryY=0.5;entryDx=0;entryDy=0;" edge="1" parent="1" source="FFVmfVcRInCIORBbtV2s-14" target="FFVmfVcRInCIORBbtV2s-13">
          <mxGeometry width="50" height="50" relative="1" as="geometry">
            <mxPoint x="383" y="152.5" as="sourcePoint" />
            <mxPoint x="443" y="127.5" as="targetPoint" />
          </mxGeometry>
        </mxCell>
        <mxCell id="FFVmfVcRInCIORBbtV2s-16" value="es de&lt;br&gt;1 a n" style="rhombus;whiteSpace=wrap;html=1;" vertex="1" parent="1">
          <mxGeometry x="300" y="130" width="80" height="80" as="geometry" />
        </mxCell>
        <mxCell id="FFVmfVcRInCIORBbtV2s-17" value="1..1" style="endArrow=none;html=1;rounded=0;exitX=1;exitY=0;exitDx=0;exitDy=0;entryX=0;entryY=1;entryDx=0;entryDy=0;" edge="1" parent="1" source="kLUOnCQ621r99mIOBmP9-114" target="FFVmfVcRInCIORBbtV2s-16">
          <mxGeometry width="50" height="50" relative="1" as="geometry">
            <mxPoint x="160" y="260" as="sourcePoint" />
            <mxPoint x="152" y="219" as="targetPoint" />
          </mxGeometry>
        </mxCell>
        <mxCell id="FFVmfVcRInCIORBbtV2s-18" value="0..n" style="endArrow=none;html=1;rounded=0;exitX=1;exitY=0;exitDx=0;exitDy=0;entryX=0.25;entryY=1;entryDx=0;entryDy=0;" edge="1" parent="1" source="FFVmfVcRInCIORBbtV2s-16" target="FFVmfVcRInCIORBbtV2s-13">
          <mxGeometry width="50" height="50" relative="1" as="geometry">
            <mxPoint x="457" y="190.5" as="sourcePoint" />
            <mxPoint x="449" y="149.5" as="targetPoint" />
          </mxGeometry>
        </mxCell>
        <mxCell id="FFVmfVcRInCIORBbtV2s-19" value="ubicacion" style="rounded=1;whiteSpace=wrap;html=1;" vertex="1" parent="1">
          <mxGeometry x="980" y="500" width="120" height="60" as="geometry" />
        </mxCell>
        <mxCell id="FFVmfVcRInCIORBbtV2s-20" value="pago" style="rounded=1;whiteSpace=wrap;html=1;" vertex="1" parent="1">
          <mxGeometry x="990" y="20" width="120" height="60" as="geometry" />
        </mxCell>
        <mxCell id="FFVmfVcRInCIORBbtV2s-22" value="direccion" style="rounded=1;whiteSpace=wrap;html=1;" vertex="1" parent="1">
          <mxGeometry x="790" y="980" width="120" height="60" as="geometry" />
        </mxCell>
        <mxCell id="FFVmfVcRInCIORBbtV2s-23" value="numero" style="ellipse;whiteSpace=wrap;html=1;" vertex="1" parent="1">
          <mxGeometry x="700" y="1090" width="80" height="50" as="geometry" />
        </mxCell>
        <mxCell id="FFVmfVcRInCIORBbtV2s-24" value="" style="endArrow=none;html=1;rounded=0;entryX=1;entryY=0;entryDx=0;entryDy=0;exitX=0.25;exitY=1;exitDx=0;exitDy=0;" edge="1" parent="1" target="FFVmfVcRInCIORBbtV2s-23" source="FFVmfVcRInCIORBbtV2s-22">
          <mxGeometry width="50" height="50" relative="1" as="geometry">
            <mxPoint x="880" y="945" as="sourcePoint" />
            <mxPoint x="660" y="575" as="targetPoint" />
            <Array as="points" />
          </mxGeometry>
        </mxCell>
        <mxCell id="FFVmfVcRInCIORBbtV2s-25" value="piso" style="ellipse;whiteSpace=wrap;html=1;" vertex="1" parent="1">
          <mxGeometry x="810" y="1100" width="80" height="50" as="geometry" />
        </mxCell>
        <mxCell id="FFVmfVcRInCIORBbtV2s-26" value="" style="endArrow=none;html=1;rounded=0;entryX=0.5;entryY=0;entryDx=0;entryDy=0;exitX=0.5;exitY=1;exitDx=0;exitDy=0;" edge="1" parent="1" target="FFVmfVcRInCIORBbtV2s-25" source="FFVmfVcRInCIORBbtV2s-22">
          <mxGeometry width="50" height="50" relative="1" as="geometry">
            <mxPoint x="950" y="980" as="sourcePoint" />
            <mxPoint x="730" y="610" as="targetPoint" />
            <Array as="points" />
          </mxGeometry>
        </mxCell>
        <mxCell id="FFVmfVcRInCIORBbtV2s-27" value="&lt;u&gt;id_direccion&lt;/u&gt;" style="ellipse;whiteSpace=wrap;html=1;" vertex="1" parent="1">
          <mxGeometry x="946" y="1100" width="80" height="50" as="geometry" />
        </mxCell>
        <mxCell id="FFVmfVcRInCIORBbtV2s-28" value="" style="endArrow=none;html=1;rounded=0;entryX=0.5;entryY=0;entryDx=0;entryDy=0;exitX=0.75;exitY=1;exitDx=0;exitDy=0;" edge="1" parent="1" target="FFVmfVcRInCIORBbtV2s-27" source="FFVmfVcRInCIORBbtV2s-22">
          <mxGeometry width="50" height="50" relative="1" as="geometry">
            <mxPoint x="1070" y="990" as="sourcePoint" />
            <mxPoint x="850" y="620" as="targetPoint" />
            <Array as="points" />
          </mxGeometry>
        </mxCell>
        <mxCell id="FFVmfVcRInCIORBbtV2s-29" value="vive&lt;br&gt;n..n" style="rhombus;whiteSpace=wrap;html=1;" vertex="1" parent="1">
          <mxGeometry x="670" y="860" width="80" height="80" as="geometry" />
        </mxCell>
        <mxCell id="FFVmfVcRInCIORBbtV2s-30" value="" style="endArrow=none;html=1;rounded=0;entryX=1;entryY=1;entryDx=0;entryDy=0;exitX=0.008;exitY=0.133;exitDx=0;exitDy=0;exitPerimeter=0;" edge="1" parent="1" source="FFVmfVcRInCIORBbtV2s-22" target="FFVmfVcRInCIORBbtV2s-29">
          <mxGeometry width="50" height="50" relative="1" as="geometry">
            <mxPoint x="800" y="1050" as="sourcePoint" />
            <mxPoint x="678.2842712474617" y="1067.3223304703365" as="targetPoint" />
            <Array as="points" />
          </mxGeometry>
        </mxCell>
        <mxCell id="FFVmfVcRInCIORBbtV2s-32" value="1..n" style="edgeLabel;html=1;align=center;verticalAlign=middle;resizable=0;points=[];" vertex="1" connectable="0" parent="FFVmfVcRInCIORBbtV2s-30">
          <mxGeometry x="-0.3643" y="-1" relative="1" as="geometry">
            <mxPoint as="offset" />
          </mxGeometry>
        </mxCell>
        <mxCell id="FFVmfVcRInCIORBbtV2s-31" value="" style="endArrow=none;html=1;rounded=0;entryX=0.5;entryY=1;entryDx=0;entryDy=0;exitX=0.5;exitY=0;exitDx=0;exitDy=0;" edge="1" parent="1" source="FFVmfVcRInCIORBbtV2s-29" target="kLUOnCQ621r99mIOBmP9-133">
          <mxGeometry width="50" height="50" relative="1" as="geometry">
            <mxPoint x="661.72" y="870" as="sourcePoint" />
            <mxPoint x="540.0042712474617" y="887.3223304703365" as="targetPoint" />
            <Array as="points" />
          </mxGeometry>
        </mxCell>
        <mxCell id="FFVmfVcRInCIORBbtV2s-34" value="1..n" style="edgeLabel;html=1;align=center;verticalAlign=middle;resizable=0;points=[];" vertex="1" connectable="0" parent="FFVmfVcRInCIORBbtV2s-31">
          <mxGeometry x="-0.42" y="1" relative="1" as="geometry">
            <mxPoint as="offset" />
          </mxGeometry>
        </mxCell>
        <mxCell id="FFVmfVcRInCIORBbtV2s-35" value="descripcion" style="ellipse;whiteSpace=wrap;html=1;" vertex="1" parent="1">
          <mxGeometry x="500" y="890" width="80" height="50" as="geometry" />
        </mxCell>
        <mxCell id="FFVmfVcRInCIORBbtV2s-36" value="" style="endArrow=none;html=1;rounded=0;entryX=1;entryY=0.5;entryDx=0;entryDy=0;exitX=0;exitY=0.5;exitDx=0;exitDy=0;" edge="1" parent="1" source="FFVmfVcRInCIORBbtV2s-29" target="FFVmfVcRInCIORBbtV2s-35">
          <mxGeometry width="50" height="50" relative="1" as="geometry">
            <mxPoint x="621.72" y="962.6800000000001" as="sourcePoint" />
            <mxPoint x="500.0042712474617" y="980.0023304703366" as="targetPoint" />
            <Array as="points" />
          </mxGeometry>
        </mxCell>
        <mxCell id="FFVmfVcRInCIORBbtV2s-37" value="telefono" style="ellipse;whiteSpace=wrap;html=1;" vertex="1" parent="1">
          <mxGeometry x="800" y="820" width="80" height="50" as="geometry" />
        </mxCell>
        <mxCell id="FFVmfVcRInCIORBbtV2s-38" value="apellido1" style="ellipse;whiteSpace=wrap;html=1;" vertex="1" parent="1">
          <mxGeometry x="850" y="690" width="80" height="50" as="geometry" />
        </mxCell>
        <mxCell id="FFVmfVcRInCIORBbtV2s-39" value="" style="endArrow=none;html=1;rounded=0;exitX=1;exitY=0.25;exitDx=0;exitDy=0;entryX=0;entryY=0.5;entryDx=0;entryDy=0;" edge="1" parent="1" source="kLUOnCQ621r99mIOBmP9-133" target="FFVmfVcRInCIORBbtV2s-38">
          <mxGeometry width="50" height="50" relative="1" as="geometry">
            <mxPoint x="760" y="780" as="sourcePoint" />
            <mxPoint x="810" y="780" as="targetPoint" />
          </mxGeometry>
        </mxCell>
        <mxCell id="FFVmfVcRInCIORBbtV2s-40" value="" style="endArrow=none;html=1;rounded=0;exitX=1;exitY=1;exitDx=0;exitDy=0;entryX=0;entryY=0;entryDx=0;entryDy=0;" edge="1" parent="1" source="kLUOnCQ621r99mIOBmP9-133" target="FFVmfVcRInCIORBbtV2s-37">
          <mxGeometry width="50" height="50" relative="1" as="geometry">
            <mxPoint x="770" y="790" as="sourcePoint" />
            <mxPoint x="820" y="790" as="targetPoint" />
          </mxGeometry>
        </mxCell>
      </root>
    </mxGraphModel>
  </diagram>
</mxfile>
